<?xml version="1.0" standalone="no"?>
<!DOCTYPE svg PUBLIC "-//W3C//DTD SVG 1.1//EN" "http://www.w3.org/Graphics/SVG/1.1/DTD/svg11.dtd">
<svg xmlns="http://www.w3.org/2000/svg" xmlns:xlink="http://www.w3.org/1999/xlink" id="Lager_1" viewBox="0 0 1366 768" width="1366" height="768"><defs><style>.cls-1{fill:url(#Namnlös_övertoning_49);}</style><linearGradient id="Namnlös_övertoning_49" x1="208.56" y1="108.13" x2="1089.19" y2="616.56" gradientUnits="userSpaceOnUse"><stop offset="0" stop-color="#57c9c6"/><stop offset=".07" stop-color="#4fb4b5"/><stop offset=".23" stop-color="#3d858f"/><stop offset=".39" stop-color="#2f5f70"/><stop offset=".55" stop-color="#244158"/><stop offset=".71" stop-color="#1c2c46"/><stop offset=".86" stop-color="#171f3c"/><stop offset="1" stop-color="#161b39"/></linearGradient></defs><path class="cls-1" d="m1203.84,362.67c0,113.12-91.03,204.83-203.32,204.83-5.69,0-11.3-.23-16.87-.7h-363.19c-25.57,0-46.31-20.73-46.31-46.32v-179.71c0-25.57-20.73-46.31-46.32-46.31h-226.15c-21,0-41.31,8.44-55.46,23.96-11.11,12.17-17.72,27.49-17.72,44.14,0,31.45,23.62,58.18,56.5,67.86v-.03h72.91c5.18,0,9.39-4.2,9.39-9.39,0-16.07,6.52-30.63,17.04-41.16,10.55-10.55,25.09-17.06,41.17-17.06h34.6c24.89,0,45.08,20.18,45.08,45.07v119.07c0,22.02-17.85,39.88-39.86,39.91l-146.21.17c-.49-.02-1,.06-1.49.03-8.16-.37-12.98-1.1-21.08-1.1-112.3,0-203.34-89.63-203.34-202.76s82.52-195.99,187.34-204.19c1.17-.1,2.35-.19,3.54-.26h381.13c25.58,0,46.32,20.73,46.32,46.31v179.56c0,23.09,16.88,42.21,38.96,45.74v.58h254.95c3.92,0,7.83-.67,11.51-2.01,30.05-10.9,51.14-36.4,51.14-66.1s-19.75-53.56-48.24-65.01c-3.93-1.58-8.15-2.34-12.38-2.34h-44.3c-18.69,0-33.85,15.16-33.85,33.85,0,9.35-3.79,17.81-9.92,23.94-6.13,6.13-14.59,9.92-23.94,9.92h-71.16c-18.69,0-33.85-15.16-33.85-33.87v-127.87c0-23.6,19.13-42.73,42.73-42.73h148.52c6.2-.58,12.46-.87,18.81-.87,112.3,0,203.32,91.71,203.32,204.83Z"/></svg>